<svg width="44" height="44" viewBox="0 0 44 44" fill="none" xmlns="http://www.w3.org/2000/svg">
<rect width="44" height="44" rx="22" fill="white" style="fill:white;fill-opacity:1;"/>
<path d="M22 17.5C27.5228 17.5 32 16.1569 32 14.5C32 12.8431 27.5228 11.5 22 11.5C16.4772 11.5 12 12.8431 12 14.5C12 16.1569 16.4772 17.5 22 17.5Z" stroke="black" style="stroke:black;stroke-opacity:1;" stroke-width="2" stroke-linecap="round" stroke-linejoin="round"/>
<path d="M15.3854 16.75C13.3094 17.2997 12 18.104 12 19C12 20.6568 16.4771 22 22 22C27.5229 22 32 20.6568 32 19C32 18.104 30.6906 17.2997 28.6145 16.75" stroke="black" style="stroke:black;stroke-opacity:1;" stroke-width="2" stroke-linecap="round" stroke-linejoin="round"/>
<path d="M15.3854 21.25C13.3094 21.7997 12 22.604 12 23.5C12 25.1568 16.4771 26.5 22 26.5C27.5229 26.5 32 25.1568 32 23.5C32 22.604 30.6906 21.7997 28.6145 21.25" stroke="black" style="stroke:black;stroke-opacity:1;" stroke-width="2" stroke-linecap="round" stroke-linejoin="round"/>
<path d="M15.3854 25.75C13.3094 26.2997 12 27.104 12 28C12 29.6568 16.4771 31 22 31C27.5229 31 32 29.6568 32 28C32 27.104 30.6906 26.2997 28.6145 25.75C26.8517 26.2167 24.5361 26.5 22 26.5C19.4639 26.5 17.1482 26.2167 15.3854 25.75Z" fill="#2FFF63" stroke="black" style="fill:#2FFF63;fill:color(display-p3 0.1843 1.0000 0.3882);fill-opacity:1;stroke:black;stroke-opacity:1;" stroke-width="2" stroke-linecap="round" stroke-linejoin="round"/>
</svg>
